<svg width="50" height="50" viewBox="0 0 50 50" fill="none" xmlns="http://www.w3.org/2000/svg">
<path d="M18.75 22.9167H20.25C20.25 22.0883 19.5784 21.4167 18.75 21.4167V22.9167ZM18.75 41.6667V43.1667C19.5784 43.1667 20.25 42.4952 20.25 41.6667H18.75ZM6.25 41.6667H4.75C4.75 42.4952 5.42157 43.1667 6.25 43.1667V41.6667ZM8.33333 24.4167H18.75V21.4167H8.33333V24.4167ZM17.25 22.9167V41.6667H20.25V22.9167H17.25ZM18.75 40.1667H6.25V43.1667H18.75V40.1667ZM7.75 41.6667V25.0001H4.75V41.6667H7.75ZM8.33333 21.4167C6.35431 21.4167 4.75 23.0211 4.75 25.0001H7.75C7.75 24.6779 8.01117 24.4167 8.33333 24.4167V21.4167Z" fill="#E1504B"/>
<path d="M31.25 16.6667V15.1667C30.4216 15.1667 29.75 15.8383 29.75 16.6667H31.25ZM43.75 41.6667V43.1667C44.5784 43.1667 45.25 42.4952 45.25 41.6667H43.75ZM31.25 41.6667H29.75C29.75 42.4952 30.4216 43.1667 31.25 43.1667V41.6667ZM31.25 18.1667H41.6667V15.1667H31.25V18.1667ZM42.25 18.7501V41.6667H45.25V18.7501H42.25ZM43.75 40.1667H31.25V43.1667H43.75V40.1667ZM32.75 41.6667V16.6667H29.75V41.6667H32.75ZM41.6667 18.1667C41.9888 18.1667 42.25 18.4279 42.25 18.7501H45.25C45.25 16.7711 43.6457 15.1667 41.6667 15.1667V18.1667Z" fill="#E1504B"/>
<path d="M31.25 41.6666V43.1666C32.0784 43.1666 32.75 42.495 32.75 41.6666H31.25ZM18.75 41.6666H17.25C17.25 42.495 17.9216 43.1666 18.75 43.1666V41.6666ZM20.8333 9.83325H29.1667V6.83325H20.8333V9.83325ZM29.75 10.4166V41.6666H32.75V10.4166H29.75ZM31.25 40.1666H18.75V43.1666H31.25V40.1666ZM20.25 41.6666V10.4166H17.25V41.6666H20.25ZM29.1667 9.83325C29.4888 9.83325 29.75 10.0944 29.75 10.4166H32.75C32.75 8.43757 31.1457 6.83325 29.1667 6.83325V9.83325ZM20.8333 6.83325C18.8543 6.83325 17.25 8.43757 17.25 10.4166H20.25C20.25 10.0944 20.5112 9.83325 20.8333 9.83325V6.83325Z" fill="#E1504B"/>
</svg>
