<svg width="43" height="38" viewBox="0 0 43 38" fill="none" xmlns="http://www.w3.org/2000/svg">
<path d="M14.8501 9.99944L28.8486 10.2009L28.8737 8.20108C28.9151 4.88764 25.8151 2.15645 21.9495 2.10081C18.0839 2.04517 14.9166 4.68615 14.8751 7.9996L14.8501 9.99944Z" stroke="#E2504C" stroke-width="3" stroke-linecap="round" stroke-linejoin="round"/>
<path d="M4.44382 35.7055H38.6573C40.007 35.7055 41.1011 34.8787 41.1011 33.8587V32.7769C41.1011 32.2871 40.8437 31.8173 40.3854 31.471L39.137 30.5275C38.8298 30.2954 38.6573 29.9806 38.6573 29.6524V22.7778C38.6573 15.638 30.9983 9.85008 21.5505 9.8501C12.1027 9.85012 4.44382 15.638 4.44382 22.7778V29.6524C4.44382 29.9807 4.27127 30.2955 3.96414 30.5276L2.71578 31.471C2.25747 31.8173 2 32.2871 2 32.7769V33.8587C2 34.8787 3.09414 35.7055 4.44382 35.7055Z" stroke="#E2504C" stroke-width="3" stroke-linecap="round" stroke-linejoin="round"/>
</svg>
