<svg width="50" height="50" viewBox="0 0 50 50" fill="none" xmlns="http://www.w3.org/2000/svg">
<path d="M40.9554 20.2107L26.372 7.45028C25.5866 6.76299 24.4138 6.76299 23.6283 7.45028L9.04494 20.2107C8.59283 20.6063 8.3335 21.1778 8.3335 21.7786V39.5832C8.3335 40.7338 9.26624 41.6666 10.4168 41.6666H18.7502C19.9008 41.6666 20.8335 40.7338 20.8335 39.5832V31.2499C20.8335 30.0993 21.7662 29.1665 22.9168 29.1665H27.0835C28.2341 29.1665 29.1668 30.0993 29.1668 31.2499V39.5832C29.1668 40.7338 30.0996 41.6666 31.2502 41.6666H39.5835C40.7341 41.6666 41.6668 40.7338 41.6668 39.5832V21.7786C41.6668 21.1778 41.4075 20.6063 40.9554 20.2107Z" stroke="#E2504C" stroke-width="3" stroke-linecap="round" stroke-linejoin="round"/>
</svg>
