<svg width="50" height="50" viewBox="0 0 50 50" fill="none" xmlns="http://www.w3.org/2000/svg">
<path d="M23.9395 30.1893C23.3537 30.7751 23.3537 31.7249 23.9395 32.3107C24.5253 32.8964 25.475 32.8964 26.0608 32.3107L23.9395 30.1893ZM31.2502 25L32.3108 26.0607C32.5921 25.7794 32.7502 25.3978 32.7502 25C32.7502 24.6022 32.5921 24.2206 32.3108 23.9393L31.2502 25ZM26.0608 17.6893C25.475 17.1036 24.5253 17.1036 23.9395 17.6893C23.3537 18.2751 23.3537 19.2249 23.9395 19.8107L26.0608 17.6893ZM8.3335 23.5C7.50507 23.5 6.8335 24.1716 6.8335 25C6.8335 25.8284 7.50507 26.5 8.3335 26.5L8.3335 23.5ZM26.0608 32.3107L32.3108 26.0607L30.1895 23.9393L23.9395 30.1893L26.0608 32.3107ZM32.3108 23.9393L26.0608 17.6893L23.9395 19.8107L30.1895 26.0607L32.3108 23.9393ZM8.3335 26.5L31.2502 26.5L31.2502 23.5L8.3335 23.5L8.3335 26.5Z" fill="white"/>
<path d="M18.75 14.5833V10.4166C18.75 9.26599 19.6827 8.33325 20.8333 8.33325H39.5833C40.7339 8.33325 41.6667 9.26599 41.6667 10.4166V39.5833C41.6667 40.7338 40.7339 41.6666 39.5833 41.6666H20.8333C19.6827 41.6666 18.75 40.7338 18.75 39.5833V35.4166" stroke="white" stroke-width="3" stroke-linecap="round" stroke-linejoin="round"/>
</svg>
