<svg width="32" height="32" viewBox="0 0 32 32" fill="none" xmlns="http://www.w3.org/2000/svg">
<circle cx="16" cy="16" r="15" stroke="white" stroke-width="2"/>
<path d="M12.8966 9.82718L20.1372 9.9314L20.1502 8.89699C20.1716 7.18314 18.5681 5.77046 16.5687 5.74168C14.5692 5.7129 12.931 7.07893 12.9095 8.79278L12.8966 9.82718Z" stroke="white" stroke-width="2" stroke-linecap="round" stroke-linejoin="round"/>
<path d="M7.51405 23.1235H25.2107C25.9088 23.1235 26.4747 22.6958 26.4747 22.1682V21.6087C26.4747 21.3553 26.3415 21.1124 26.1045 20.9332L25.4588 20.4452C25.2999 20.3252 25.2107 20.1623 25.2107 19.9926V16.4367C25.2107 12.7437 21.2491 9.74999 16.3623 9.75C11.4756 9.75001 7.51405 12.7438 7.51405 16.4367V19.9926C7.51405 20.1624 7.4248 20.3252 7.26593 20.4453L6.62023 20.9332C6.38318 21.1124 6.25 21.3553 6.25 21.6087V22.1682C6.25 22.6958 6.81593 23.1235 7.51405 23.1235Z" stroke="white" stroke-width="2" stroke-linecap="round" stroke-linejoin="round"/>
</svg>
