<svg width="50" height="50" viewBox="0 0 50 50" fill="none" xmlns="http://www.w3.org/2000/svg">
<path d="M20.4135 27.4652C19.8277 28.051 19.8277 29.0007 20.4135 29.5865C20.9992 30.1723 21.949 30.1723 22.5348 29.5865L20.4135 27.4652ZM32.6309 19.4903C33.2167 18.9046 33.2167 17.9548 32.6309 17.369C32.0451 16.7832 31.0954 16.7832 30.5096 17.369L32.6309 19.4903ZM22.5348 29.5865L32.6309 19.4903L30.5096 17.369L20.4135 27.4652L22.5348 29.5865Z" fill="white"/>
<path d="M28.6043 43.2657L27.2627 43.9365L27.2627 43.9365L28.6043 43.2657ZM32.4589 42.9467L31.0253 42.5056L31.0253 42.5056L32.4589 42.9467ZM20.6932 28.3752L20.0224 29.7168L20.6932 28.3752ZM21.6249 29.3069L22.9666 28.6361L21.6249 29.3069ZM7.05342 17.5412L7.49455 18.9749L7.05342 17.5412ZM6.73441 21.3958L6.06359 22.7374L6.06359 22.7374L6.73441 21.3958ZM39.9891 7.40715L40.4302 8.84082L39.9891 7.40715ZM42.593 10.011L44.0266 10.4522L44.0266 10.4522L42.593 10.011ZM39.548 5.97348L6.6123 16.1075L7.49455 18.9749L40.4302 8.84082L39.548 5.97348ZM6.06359 22.7374L20.0224 29.7168L21.364 27.0336L7.40523 20.0542L6.06359 22.7374ZM20.2833 29.9777L27.2627 43.9365L29.946 42.5949L22.9666 28.6361L20.2833 29.9777ZM33.8926 43.3878L44.0266 10.4522L41.1593 9.5699L31.0253 42.5056L33.8926 43.3878ZM27.2627 43.9365C28.7084 46.828 32.9419 46.4776 33.8926 43.3878L31.0253 42.5056C30.8705 43.0085 30.1813 43.0656 29.946 42.5949L27.2627 43.9365ZM20.0224 29.7168C20.1353 29.7733 20.2268 29.8648 20.2833 29.9777L22.9666 28.6361C22.6198 27.9426 22.0575 27.3803 21.364 27.0336L20.0224 29.7168ZM6.6123 16.1075C3.52251 17.0582 3.17215 21.2917 6.06359 22.7374L7.40523 20.0542C6.93453 19.8188 6.99157 19.1296 7.49455 18.9749L6.6123 16.1075ZM40.4302 8.84082C40.8778 8.7031 41.297 9.12233 41.1593 9.5699L44.0266 10.4522C44.8726 7.70275 42.2974 5.12751 39.548 5.97348L40.4302 8.84082Z" fill="white"/>
</svg>
