<svg width="50" height="50" viewBox="0 0 50 50" fill="none" xmlns="http://www.w3.org/2000/svg">
<path d="M25 43.75C35.3553 43.75 43.75 35.3553 43.75 25C43.75 14.6447 35.3553 6.25 25 6.25C14.6447 6.25 6.25 14.6447 6.25 25C6.25 35.3553 14.6447 43.75 25 43.75Z" stroke="white" stroke-width="3" stroke-linecap="round" stroke-linejoin="round"/>
<path d="M35.8678 40.2757C33.1976 37.2934 29.3179 35.4167 24.9998 35.4167C20.6818 35.4167 16.8021 37.2934 14.1318 40.2757" stroke="white" stroke-width="3" stroke-linecap="round" stroke-linejoin="round"/>
<path d="M25 29.1667C28.4518 29.1667 31.25 26.3685 31.25 22.9167C31.25 19.465 28.4518 16.6667 25 16.6667C21.5482 16.6667 18.75 19.465 18.75 22.9167C18.75 26.3685 21.5482 29.1667 25 29.1667Z" stroke="white" stroke-width="3" stroke-linecap="round" stroke-linejoin="round"/>
</svg>
